<?xml version="1.0" encoding="utf-8"?>
<!-- Generator: Adobe Illustrator 22.1.0, SVG Export Plug-In . SVG Version: 6.00 Build 0)  -->
<svg version="1.1" xmlns="http://www.w3.org/2000/svg" xmlns:xlink="http://www.w3.org/1999/xlink" x="0px" y="0px"
	 viewBox="0 0 32 32" style="enable-background:new 0 0 32 32;" xml:space="preserve">
<style type="text/css">
	.st0{display:none;}
	.st1{display:inline;fill:#9FA4AC;}
	.st2{fill:#9FA4AC;}
	.st3{display:inline;}
</style>
<g id="leftArrow" class="st0">
	<path class="st1" d="M16,30.5C8,30.5,1.5,24,1.5,16S8,1.5,16,1.5S30.5,8,30.5,16S24,30.5,16,30.5z M16,3.3C9,3.3,3.3,9,3.3,16
		S9,28.7,16,28.7S28.7,23,28.7,16S23,3.3,16,3.3z"/>
	<polygon class="st1" points="10.4,15.1 14.7,10.9 13.2,9.5 6.7,16 13.2,22.5 14.7,21.1 10.7,17.1 25.3,17.1 25.3,15.1 	"/>
</g>
<g id="downArrow">
	<g>
		<path class="st2" d="M16,30.5C8,30.5,1.5,24,1.5,16S8,1.5,16,1.5S30.5,8,30.5,16S24,30.5,16,30.5z M16,3.3C9,3.3,3.3,9,3.3,16
			S9,28.7,16,28.7S28.7,23,28.7,16S23,3.3,16,3.3z"/>
		<polygon class="st2" points="15.2,21 11.4,17.2 10.1,18.5 16,24.4 21.9,18.5 20.6,17.2 17,20.8 17,7.6 15.2,7.6 		"/>
	</g>
</g>
<g id="upArrow" class="st0">
	<g class="st3">
		<path class="st2" d="M16,30.5C8,30.5,1.5,24,1.5,16S8,1.5,16,1.5S30.5,8,30.5,16S24,30.5,16,30.5z M16,3.3C9,3.3,3.3,9,3.3,16
			S9,28.7,16,28.7S28.7,23,28.7,16S23,3.3,16,3.3z"/>
		<polygon class="st2" points="16.8,11 20.6,14.8 21.9,13.5 16,7.6 10.1,13.5 11.4,14.8 15,11.2 15,24.4 16.8,24.4 		"/>
	</g>
</g>
<g id="rightArrow" class="st0">
	<g class="st3">
		<polygon class="st2" points="21,16.8 17.2,20.6 18.5,21.9 24.4,16 18.5,10.1 17.2,11.4 20.8,15 7.6,15 7.6,16.8 		"/>
		<path class="st2" d="M16,30.5C8,30.5,1.5,24,1.5,16S8,1.5,16,1.5S30.5,8,30.5,16S24,30.5,16,30.5z M16,3.3C9,3.3,3.3,9,3.3,16
			S9,28.7,16,28.7S28.7,23,28.7,16S23,3.3,16,3.3z"/>
	</g>
</g>
<g id="zoomExtends" class="st0">
	<g class="st3">
		<path class="st2" d="M16,30.5C8,30.5,1.5,24,1.5,16S8,1.5,16,1.5S30.5,8,30.5,16S24,30.5,16,30.5z M16,3.3C9,3.3,3.3,9,3.3,16
			S9,28.7,16,28.7S28.7,23,28.7,16S23,3.3,16,3.3z"/>
		<path class="st2" d="M21.6,20.1H10.4v-8.2h11.3V20.1z M11.4,19.2h9.2v-6.3h-9.2V19.2z"/>
		<polygon class="st2" points="21.4,23.1 25.1,23.1 25.1,19.3 		"/>
		<polygon class="st2" points="6.9,19.3 6.9,23.1 10.6,23.1 		"/>
		<polygon class="st2" points="6.9,12.7 6.9,8.9 10.6,8.9 		"/>
		<polygon class="st2" points="21.4,8.9 25.1,8.9 25.1,12.7 		"/>
	</g>
</g>
<g id="plus" class="st0">
	<g class="st3">
		<path class="st2" d="M16,30.5C8,30.5,1.5,24,1.5,16S8,1.5,16,1.5S30.5,8,30.5,16S24,30.5,16,30.5z M16,3.3C9,3.3,3.3,9,3.3,16
			S9,28.7,16,28.7S28.7,23,28.7,16S23,3.3,16,3.3z"/>
		<polygon class="st2" points="24.4,14.9 16.7,14.9 16.7,7.2 14.9,7.2 14.9,14.9 7.2,14.9 7.2,16.7 14.9,16.7 14.9,24.4 16.7,24.4 
			16.7,16.7 24.4,16.7 		"/>
	</g>
</g>
<g id="minus" class="st0">
	<g class="st3">
		<path class="st2" d="M16,30.5C8,30.5,1.5,24,1.5,16S8,1.5,16,1.5S30.5,8,30.5,16S24,30.5,16,30.5z M16,3.3C9,3.3,3.3,9,3.3,16
			S9,28.7,16,28.7S28.7,23,28.7,16S23,3.3,16,3.3z"/>
		<rect x="7.4" y="15.2" class="st2" width="17.2" height="1.8"/>
	</g>
</g>
</svg>
